<?xml version="1.0" encoding="UTF-8"?>
<svg id="svg22" xmlns="http://www.w3.org/2000/svg" version="1.1" viewBox="0 0 304.8 68.1">
  <defs>
    <style>
      .cls-1 {
        fill: #000;
      }

      .cls-1, .cls-2 {
        stroke: #fff;
        stroke-width: 1;
      }

      .cls-2 {
        fill: #44cebf;
      }
    </style>
  </defs>
  <g id="Teal">
    <g id="g10">
      <path id="path1" class="cls-2" d="M191,59.8v-24.8h7.4v24.8h-7.4Z"/>
      <path id="path2" class="cls-2" d="M238.7,5.8c-.1.6-.3,1.1-.8,1.5-.6.5-1.7.6-2.4.1s-1.1-1.4-.9-2.3c.2-.7,1.1-1.4,1.8-1.5,1.2,0,2,.6,2.2,1.8,0,0,0,0,0,.1v.2h0Z"/>
      <path id="path3" class="cls-2" d="M152.3,5.3c.3-.6.6-1.2,1.3-1.5,1.4-.6,2.8.5,2.8,1.9,0,1.6-1.7,2.7-3.1,1.8-.5-.3-.8-.8-1-1.3v-.9h0Z"/>
      <path id="path4" class="cls-2" d="M197.5,18.6c0-2,1.6-3.6,3.5-3.5,2.1,0,3.5,1.5,3.6,3.5,0,1.9-1.4,3.5-3.6,3.5-1.8,0-3.6-1.6-3.4-3.6h0Z"/>
      <path id="path5" class="cls-2" d="M194.7,31c-2.1,0-3.6-1.6-3.5-3.5,0-2.1,1.5-3.5,3.5-3.5,1.9,0,3.5,1.4,3.5,3.6,0,1.8-1.6,3.6-3.6,3.5h0Z"/>
      <path id="path6" class="cls-2" d="M184.7,18.6c0-2,1.6-3.6,3.5-3.5,2,0,3.5,1.4,3.6,3.5,0,1.9-1.4,3.5-3.4,3.6-2.1,0-3.7-1.6-3.6-3.5h0Z"/>
      <path id="path7" class="cls-2" d="M206.5,8.7c0-1.5,1.2-2.7,2.7-2.7,1.5,0,2.7,1.2,2.7,2.7,0,1.5-1.2,2.6-2.7,2.6-1.4,0-2.7-1.2-2.7-2.7h0Z"/>
      <path id="path8" class="cls-2" d="M183.1,8.7c0,1.5-1.2,2.7-2.7,2.7-1.4,0-2.6-1.2-2.6-2.6,0-1.6,1.2-2.8,2.7-2.8s2.6,1.1,2.6,2.7h0Z"/>
      <path id="path9" class="cls-2" d="M222.9,4.6c-1.2.1-2.3-1-2.3-2.3S221.6,0,223,0C224.3,0,225.3,1.1,225.3,2.3s-1.1,2.5-2.4,2.3h0Z"/>
      <path id="path10" class="cls-2" d="M168,0c1.4,0,2.4,1,2.4,2.3,0,1.4-1.2,2.2-2.2,2.3-1.4.1-2.5-1.2-2.5-2.3,0-1.1,1.1-2.5,2.3-2.4h0Z"/>
    </g>
  </g>
  <g id="Black">
    <g id="g22">
      <path id="path11" class="cls-1" d="M0,41.9c0-.4.2-.7.2-1.1.1-1.5.5-2.9,1.1-4.3,1-2.2,2.3-4.2,4.1-5.9,1.6-1.5,3.5-2.6,5.5-3.4,1.4-.5,2.9-1,4.4-1,1.2,0,2.5-.2,3.8,0,3.1.2,5.9,1.3,8.5,3,2.2,1.5,3.9,3.4,5.2,5.7.9,1.7,1.7,3.5,2,5.3.2,1.5.3,3.1.2,4.7-.1,2-.7,3.9-1.5,5.7-.8,1.6-1.8,3.1-3,4.4-1.3,1.5-2.9,2.6-4.6,3.5-1.5.8-3,1.4-4.6,1.7-1.7.3-3.4.4-5.1.3-2.6-.2-5.1-.9-7.4-2.2-1.7-1-3.2-2.1-4.4-3.6-1.2-1.4-2.1-2.9-2.9-4.5-.6-1.2-.9-2.6-1.1-3.9,0-.3-.1-.6-.2-.9v-3.3h0ZM26.5,43c0-1.7-.5-3.5-1.4-5.1-.7-1.2-1.6-2.3-2.8-3-1.8-1.2-3.9-1.7-6.1-1.3-2.6.4-4.6,1.7-6.1,3.8-1.6,2.5-2.1,5.2-1.5,8.1.5,2.3,1.6,4.3,3.5,5.8,2.2,1.8,4.8,2.2,7.5,1.6,1.9-.4,3.4-1.5,4.6-3,1.5-1.9,2.3-4.1,2.3-6.9h0Z"/>
      <path id="path12" class="cls-1" d="M146.1,68.1v-33.1h7v2.8c.2-.2.4-.3.5-.4,1.3-1.4,2.8-2.4,4.6-2.9.5-.2,1.1-.2,1.6-.3.5,0,.9-.1,1.4,0,1.8,0,3.5.3,5.1,1.2,1.8,1,3.4,2.3,4.5,4.1,1,1.6,1.7,3.4,2,5.3.2,1.4.4,2.7.3,4.1-.1,1.6-.5,3.2-1.2,4.7-.7,1.5-1.6,2.9-2.8,4.1-1.4,1.3-3,2.3-4.9,2.8-1.1.3-2.3.4-3.4.4-1.4,0-2.7-.3-4-.8-.9-.4-1.7-.8-2.4-1.5-.3-.3-.6-.5-.9-.8v10.6h-7.4,0ZM153.2,47.4c0,3.7,2.7,6.3,6.1,6.4,3.9,0,6.4-2.9,6.4-6.4,0-3.5-2.5-6.2-5.9-6.5-3.9-.2-6.7,3.1-6.6,6.4h0Z"/>
      <path id="path13" class="cls-1" d="M37.5,68.1v-33.1h6.9v2.7c.2,0,.4-.1.4-.2,1.4-1.7,3.1-2.8,5.2-3.2,1.4-.3,2.8-.3,4.2,0,1.2.2,2.2.5,3.3,1,1.2.5,2.2,1.3,3.1,2.2,1.5,1.4,2.5,3.2,3.1,5.1.5,1.4.7,2.9.8,4.3.1,1.9-.1,3.7-.7,5.5-.5,1.6-1.3,3-2.4,4.3-1.4,1.7-3.2,2.8-5.2,3.5-1.3.5-2.6.5-4,.5-1.7,0-3.2-.3-4.7-1.1-.9-.5-1.7-1.2-2.6-1.8v10.4h-7.4,0ZM44.6,47.5c-.1,3.5,2.8,6.3,6,6.3,3.9,0,6.3-2.9,6.5-5.9.3-3.9-3-6.8-6-6.9-3.9-.2-6.7,3.2-6.5,6.5Z"/>
      <path id="path14" class="cls-1" d="M304.8,41.5c-1.2.1-2.4.1-3.5.6-1.2.5-2.2,1.7-2.2,3.1,0,4.7,0,9.3-.1,14v.6h-7.3v-24.7h6.9v2.5s0,0,.1,0c.1-.1.2-.2.3-.4.7-1.5,1.9-2.3,3.5-2.8.8-.2,1.6-.3,2.4-.3v7.3h0Z"/>
      <path id="path15" class="cls-1" d="M120.5,49h8.4c.2.8.3,1.6.5,2.3.9,2.3,3.5,2.8,5.2,1.4,1.6-1.3,1.7-4.1-.4-5.1-1.8-.9-3.7-1.7-5.6-2.5-1.8-.8-3.6-1.6-4.9-3.1-1.1-1.2-2.1-2.5-2.3-4.2-.4-2.3-.2-4.5,1.1-6.5,1.4-2.1,3.3-3.5,5.6-4.3,1.9-.7,4-.9,6-.8,1.4.1,2.7.5,4,1,1.4.6,2.5,1.4,3.5,2.5,1.1,1.3,1.8,2.7,2.1,4.4.1.7.2,1.5.3,2.2h-8.3c-.2-.8-.2-1.6-.8-2.2-.4-.4-.7-.8-1.3-.9-1.2-.2-2.3,0-3.3.9-.7.7-.8,2.8,0,3.5.9.8,2,1.3,3,1.8,1,.5,2.1.9,3.1,1.4,1.4.7,2.7,1.4,4,2.2,1.7,1.1,2.9,2.5,3.4,4.5.4,1.3.4,2.7.3,4.1-.1,1.2-.4,2.3-.9,3.3-.8,1.7-2,3-3.7,4-1.3.7-2.6,1.2-4.1,1.4-1.4.1-2.8.2-4.2.2-2.7,0-5.1-1-7.2-2.7-1.6-1.3-2.6-3-3-5-.2-1.2-.3-2.5-.5-3.8h0Z"/>
      <path id="path16" class="cls-1" d="M252,35c-.9,1-1.7,2-2.5,3-1.1,1.2-2.1,2.5-3.2,3.8-.9,1-1.7,2-2.6,3-.2.3-.5.6-.7.8-.2.2-.2.4,0,.7,1.6,2.5,3.2,4.9,4.8,7.4,1.3,2,2.6,4.1,4,6.2h-8.1c-.1,0-.2,0-.3-.2-1.2-2-2.3-3.9-3.5-5.9-1.1-1.8-2.1-3.6-3.2-5.4-.1-.2-.2-.4-.4-.6v12h-7.4V26.8h7.4v17.4c.6-.7,1-1.3,1.5-1.9,1.1-1.4,2.1-2.8,3.2-4.2.7-1,1.4-1.9,2.2-2.9,0-.1.3-.2.4-.2,2.8,0,5.6,0,8.5,0h0Z"/>
      <path id="path17" class="cls-1" d="M270.4,49.6c0,1.1.4,1.9,1,2.7,1,1.2,2.2,1.9,3.7,2.1,1.9.2,3.6,0,5-1.5.5-.6,1.1-.8,1.9-.8,1.9,0,3.8,0,5.8,0s.5,0,.3.5c-.8,1.8-1.9,3.3-3.3,4.6-1.7,1.5-3.6,2.7-6,3.1-.9.1-1.7.3-2.6.3-1.5,0-3-.2-4.5-.8-1.6-.7-3.1-1.5-4.4-2.7-1.4-1.2-2.4-2.7-3.1-4.4-.5-1.1-.7-2.3-.9-3.5-.2-1.2-.1-2.3,0-3.5.2-1.1.4-2.2.9-3.3.9-2.2,2.2-4,4.1-5.4,1.4-1.1,2.9-1.9,4.6-2.4.7-.2,1.4-.3,2-.4,1.1,0,2.2,0,3.2,0,1.6.2,3.1.7,4.5,1.5,1.2.7,2.2,1.5,3.1,2.5,1.1,1.3,2,2.7,2.6,4.3.8,2.1.9,4.2.8,6.4,0,.4-.2.5-.6.5-5.9,0-11.7,0-17.5,0h-.6,0ZM270.4,44.7c.1,0,.2,0,.3,0h10.7c.4,0,.4-.2.3-.5-.1-.3-.2-.6-.4-.9-.8-1.5-2-2.5-3.8-2.9-.9-.2-1.9-.2-2.8,0-1,.2-1.8.5-2.6,1.2-1,.8-1.5,1.8-1.9,3.1h0Z"/>
      <path id="path18" class="cls-1" d="M90.7,52.2c0,.2,0,.4-.2.6-.8,1.7-1.8,3.1-3.2,4.4-1.7,1.6-3.7,2.8-6.1,3.2-.9.1-1.8.3-2.6.3-1.9,0-3.8-.4-5.6-1.3-2.9-1.4-5-3.6-6.3-6.5-1-2.1-1.3-4.3-1-6.6.2-1.9.7-3.6,1.7-5.3,1.4-2.6,3.6-4.4,6.2-5.6,1.4-.7,3-1,4.6-1,1.6,0,3.1.2,4.5.6,2.1.7,3.9,1.8,5.4,3.4,1.2,1.4,2.1,2.9,2.8,4.7.7,2,.8,4,.8,6.1,0,.4-.2.6-.7.6-5.8,0-11.7,0-17.5,0-.4,0-.7,0-.5.5.3,1.1.8,2,1.6,2.8,1.5,1.4,3.3,1.7,5.2,1.5,1.3-.1,2.3-.8,3.1-1.8.2-.2.5-.4.8-.4,2.3,0,4.5,0,6.8,0s0,0,.2,0h0ZM78.7,44.7h5.2c.2,0,.6,0,.4-.4-.3-.8-.7-1.7-1.3-2.3-.8-.8-1.7-1.3-2.8-1.5-.9-.2-1.9-.2-2.8,0-1.4.3-2.6.8-3.4,2-.3.5-.6,1.1-.8,1.6-.3.6-.3.6.4.6h5.1Z"/>
      <path id="path19" class="cls-1" d="M101.5,59.8h-7.3v-24.8h6.8v2.6s0,0,.1,0c0,0,.2-.1.2-.2.7-1.1,1.5-2,2.7-2.5,1-.4,2-.7,3.1-.7,1.5,0,3,0,4.4.6,2.7,1,4.5,2.8,5.1,5.7.4,1.7.5,3.5.5,5.2v13.5c0,.4,0,.6-.6.6-2.1,0-4.2,0-6.3,0-.4,0-.6-.1-.6-.6,0-4.8,0-9.6,0-14.3,0-2-.8-3.2-2.6-3.7-.6-.2-1.3,0-1.9,0-.6,0-1.2.2-1.7.4-1.1.6-1.7,1.5-1.9,2.7-.2,1-.2,2-.2,3,0,4,0,8,0,12v.6h0Z"/>
      <path id="path20" class="cls-1" d="M209.4,59.8h-7.3v-24.8h6.8v2.5s0,0,.1,0c.1-.1.3-.3.4-.4.6-1,1.5-1.8,2.5-2.3,1-.5,2-.7,3.1-.8,1.3,0,2.6,0,3.9.4,1.7.6,3.2,1.3,4.3,2.8.7.9,1.1,1.9,1.4,3,.3,1.2.4,2.5.4,3.7,0,5,0,10.1,0,15.1v.6h-7.3v-.5c0-4.7,0-9.4,0-14.1,0-1.5-.4-2.9-1.9-3.6-.4-.2-.8-.3-1.3-.4-1,0-1.9-.2-2.9.3-1.2.5-1.9,1.5-2.1,2.7-.2,1.4-.2,2.7-.2,4.1,0,3.7,0,7.3,0,11v.5h0Z"/>
      <path id="path21" class="cls-1" d="M260.8,59.8h-7.3V26.8h7.3v33.1Z"/>
      <path id="path22" class="cls-1" d="M188.8,34.2v7.3c-.6,0-1.3.1-1.9.2-1.9.2-3.3,1-3.8,3-.1.5-.1,1.2-.1,1.7,0,4.2,0,8.5,0,12.8v.6h-7.3v-24.7h6.9v2.6s0,0,.1,0c1.2-2.7,3.4-3.6,6.1-3.5h0Z"/>
    </g>
  </g>
</svg>