<?xml version="1.0" encoding="UTF-8"?>
<svg xmlns="http://www.w3.org/2000/svg" version="1.1" xmlns:inkscape="http://www.inkscape.org/namespaces/inkscape" xmlns:sodipodi="http://sodipodi.sourceforge.net/DTD/sodipodi-0.dtd" xmlns:svg="http://www.w3.org/2000/svg" viewBox="0 0 243.8 54.5">
  <defs>
    <style>
      .cls-1 {
        fill: #000;
      }

      .cls-1, .cls-2 {
        stroke: #000;
        stroke-miterlimit: 10;
        stroke-width: .1px;
      }

      .cls-2 {
        fill: #44cebf;
      }
    </style>
  </defs>
  <g id="svg22" inkscape:version="1.3.2 (091e20e, 2023-11-25, custom)" sodipodi:docname="OpenSprinkler8.svg">
    <sodipodi:namedview id="namedview22" bordercolor="#111111" borderopacity="1" inkscape:current-layer="svg22" inkscape:cx="121.92" inkscape:cy="27.29968" inkscape:deskcolor="#d1d1d1" inkscape:lockguides="false" inkscape:pagecheckerboard="1" inkscape:pageopacity="0" inkscape:showpageshadow="0" inkscape:window-height="992" inkscape:window-maximized="1" inkscape:window-width="1920" inkscape:window-x="2092" inkscape:window-y="-8" inkscape:zoom="5.3846785" pagecolor="#ffffff" showgrid="false"/>
    <g id="Teal" inkscape:highlight-color="#5ff5e8" inkscape:label="Teal">
      <g id="g10">
        <path id="path1" class="cls-2" d="M152.8,47.9v-19.8h5.9v19.8h-5.9Z"/>
        <path id="path2" class="cls-2" d="M191,4.7c-.1.5-.2.9-.6,1.2-.5.4-1.3.5-2,.1-.6-.4-.9-1.1-.7-1.9.1-.6.8-1.1,1.5-1.2,1,0,1.6.5,1.8,1.4,0,0,0,0,0,0v.2h0Z"/>
        <path id="path3" class="cls-2" d="M121.8,4.3c.2-.5.5-.9,1-1.2,1.1-.5,2.2.4,2.3,1.5,0,1.3-1.4,2.1-2.5,1.5-.4-.3-.6-.6-.8-1.1v-.7Z"/>
        <path id="path4" class="cls-2" d="M158,14.9c0-1.6,1.3-2.8,2.8-2.8,1.7,0,2.8,1.2,2.8,2.8,0,1.5-1.2,2.8-2.9,2.8-1.4,0-2.9-1.3-2.8-2.8Z"/>
        <path id="path5" class="cls-2" d="M155.7,24.8c-1.7,0-2.9-1.3-2.8-2.8,0-1.7,1.2-2.8,2.8-2.8,1.5,0,2.8,1.1,2.8,2.9,0,1.4-1.2,2.9-2.8,2.8Z"/>
        <path id="path6" class="cls-2" d="M147.7,14.9c0-1.6,1.3-2.9,2.8-2.8,1.6,0,2.8,1.1,2.9,2.8,0,1.5-1.1,2.8-2.8,2.9-1.6,0-2.9-1.3-2.9-2.8h0Z"/>
        <path id="path7" class="cls-2" d="M165.2,7c0-1.2.9-2.1,2.2-2.1,1.2,0,2.1.9,2.1,2.2,0,1.2-.9,2.1-2.2,2.1-1.2,0-2.1-1-2.1-2.2h0Z"/>
        <path id="path8" class="cls-2" d="M146.5,7c0,1.2-.9,2.2-2.1,2.2-1.1,0-2.1-1-2.1-2.1,0-1.3,1-2.2,2.1-2.2,1.2,0,2.1.9,2.1,2.1h0Z"/>
        <path id="path9" class="cls-2" d="M178.4,3.7c-1,.1-1.9-.8-1.9-1.8,0-1,.8-1.9,1.9-1.9,1.1,0,1.9.9,1.9,1.9,0,1-.9,2-1.9,1.9h0Z"/>
        <path id="path10" class="cls-2" d="M134.4,0c1.1,0,1.9.8,1.9,1.9,0,1.1-.9,1.8-1.8,1.8-1.1,0-2-1-2-1.8,0-.9.9-2,1.9-1.9h0Z"/>
      </g>
    </g>
    <g id="Black" inkscape:highlight-color="#000000" inkscape:label="Black">
      <g id="g22">
        <path id="path11" class="cls-1" d="M0,33.5c0-.3.1-.6.2-.9,0-1.2.4-2.3.9-3.4.8-1.8,1.9-3.4,3.3-4.7,1.3-1.2,2.8-2.1,4.4-2.7,1.1-.4,2.3-.8,3.5-.8,1,0,2-.1,3,0,2.5.2,4.7,1,6.8,2.4,1.7,1.2,3.1,2.7,4.1,4.5.8,1.3,1.3,2.8,1.6,4.3.2,1.2.2,2.5.2,3.8-.1,1.6-.6,3.1-1.2,4.6-.6,1.3-1.4,2.5-2.4,3.5-1.1,1.2-2.3,2.1-3.7,2.8-1.2.6-2.4,1.1-3.7,1.3-1.3.3-2.7.3-4.1.3-2.1-.1-4.1-.7-5.9-1.8-1.3-.8-2.5-1.7-3.5-2.9-.9-1.1-1.7-2.3-2.3-3.6-.4-1-.8-2-.9-3.1,0-.2-.1-.5-.2-.7v-2.6H0ZM21.2,34.4c0-1.3-.4-2.8-1.1-4.1-.5-1-1.3-1.8-2.2-2.4-1.5-1-3.1-1.3-4.9-1.1-2.1.3-3.7,1.3-4.9,3.1-1.3,2-1.7,4.2-1.2,6.5.4,1.9,1.3,3.4,2.8,4.6,1.8,1.4,3.9,1.7,6,1.3,1.5-.3,2.7-1.2,3.7-2.4,1.2-1.5,1.9-3.3,1.8-5.5h0Z"/>
        <path id="path12" class="cls-1" d="M116.9,54.5v-26.5h5.6v2.2c.2-.2.3-.2.4-.3,1-1.2,2.2-1.9,3.7-2.3.4-.1.9-.2,1.3-.2.4,0,.7,0,1.1,0,1.4,0,2.8.3,4.1.9,1.5.8,2.7,1.8,3.6,3.3.8,1.3,1.3,2.7,1.6,4.2.2,1.1.3,2.2.2,3.3,0,1.3-.4,2.5-.9,3.7-.6,1.2-1.2,2.3-2.2,3.2-1.1,1-2.4,1.8-3.9,2.2-.9.2-1.8.3-2.8.3-1.1,0-2.2-.2-3.2-.6-.7-.3-1.3-.7-1.9-1.2-.2-.2-.5-.4-.7-.6v8.5h-5.9,0ZM122.6,37.9c0,2.9,2.2,5.1,4.9,5.1,3.1,0,5.2-2.3,5.2-5.1,0-2.8-2-5-4.7-5.2-3.1-.2-5.4,2.5-5.3,5.1Z"/>
        <path id="path13" class="cls-1" d="M30,54.5v-26.5h5.5v2.2c.2,0,.3-.1.4-.2,1.1-1.4,2.5-2.2,4.2-2.5,1.1-.2,2.2-.3,3.3,0,.9.2,1.8.4,2.6.8.9.4,1.7,1,2.5,1.8,1.2,1.2,2,2.5,2.4,4.1.4,1.1.5,2.3.6,3.5.1,1.5,0,3-.6,4.4-.4,1.3-1.1,2.4-1.9,3.4-1.1,1.3-2.5,2.2-4.1,2.8-1,.4-2.1.4-3.2.4-1.3,0-2.6-.3-3.7-.9-.7-.4-1.4-.9-2.1-1.4v8.3h-5.9ZM35.7,38c-.1,2.8,2.2,5,4.8,5.1,3.1,0,5-2.3,5.2-4.7.2-3.2-2.4-5.4-4.8-5.5-3.1-.1-5.4,2.5-5.2,5.2Z"/>
        <path id="path14" class="cls-1" d="M243.8,33.2c-1,.1-1.9.1-2.8.5-1,.4-1.8,1.4-1.8,2.5,0,3.7,0,7.5,0,11.2,0,.1,0,.3,0,.5h-5.8v-19.8h5.5v2s0,0,0,0c0,0,.2-.2.2-.3.6-1.2,1.5-1.9,2.8-2.2.6-.2,1.3-.2,1.9-.2v5.8Z"/>
        <path id="path15" class="cls-1" d="M96.4,39.2h6.7c.1.6.2,1.3.4,1.9.7,1.8,2.8,2.3,4.2,1.1,1.3-1.1,1.3-3.3-.4-4.1-1.5-.7-3-1.4-4.4-2-1.4-.6-2.9-1.3-4-2.5-.9-.9-1.6-2-1.9-3.3-.3-1.8-.2-3.6.9-5.2,1.1-1.7,2.6-2.8,4.5-3.5,1.6-.6,3.2-.7,4.8-.6,1.1,0,2.2.4,3.2.8,1.1.4,2,1.1,2.8,2,.9,1,1.5,2.2,1.7,3.5,0,.6.1,1.2.2,1.8h-6.7c-.2-.6-.2-1.3-.7-1.8-.3-.3-.6-.6-1.1-.7-1-.1-1.9,0-2.6.7-.6.6-.7,2.2,0,2.8.7.6,1.6,1.1,2.4,1.5.8.4,1.7.7,2.5,1.2,1.1.6,2.2,1.1,3.2,1.8,1.3.8,2.3,2,2.7,3.6.3,1.1.4,2.1.2,3.3,0,.9-.3,1.8-.7,2.6-.6,1.4-1.6,2.4-3,3.2-1,.6-2.1,1-3.3,1.1-1.1.1-2.2.2-3.4.2-2.1,0-4.1-.8-5.7-2.1-1.3-1-2.1-2.4-2.4-4-.2-1-.3-2-.4-3h0Z"/>
        <path id="path16" class="cls-1" d="M201.6,28c-.7.8-1.4,1.6-2,2.4-.8,1-1.7,2-2.5,3-.7.8-1.4,1.6-2.1,2.4-.2.2-.4.4-.6.7-.1.2-.2.3,0,.5,1.3,2,2.6,3.9,3.9,5.9,1.1,1.6,2.1,3.3,3.2,4.9-2.2,0-4.3,0-6.5,0,0,0-.2,0-.2-.1-.9-1.6-1.8-3.1-2.8-4.7-.8-1.4-1.7-2.9-2.5-4.3,0-.2-.2-.3-.3-.5v9.6h-5.9v-26.4h5.9v13.9c.4-.6.8-1,1.2-1.5.8-1.1,1.7-2.2,2.5-3.3.6-.8,1.2-1.5,1.7-2.3,0,0,.2-.2.3-.2,2.2,0,4.5,0,6.8,0h0Z"/>
        <path id="path17" class="cls-1" d="M216.3,39.7c0,.8.3,1.5.8,2.1.8.9,1.8,1.5,2.9,1.7,1.5.2,2.9,0,4-1.2.4-.5.9-.6,1.5-.6,1.5,0,3.1,0,4.6,0,.4,0,.4,0,.3.4-.6,1.4-1.5,2.6-2.6,3.7-1.4,1.2-2.9,2.2-4.8,2.5-.7.1-1.4.2-2.1.2-1.2,0-2.4-.2-3.6-.6-1.3-.5-2.5-1.2-3.5-2.2-1.1-1-1.9-2.2-2.5-3.5-.4-.9-.6-1.9-.8-2.8-.2-.9-.1-1.8,0-2.8.1-.9.3-1.8.7-2.6.7-1.7,1.8-3.2,3.2-4.3,1.1-.9,2.3-1.5,3.7-1.9.5-.2,1.1-.3,1.6-.3.9,0,1.7,0,2.6,0,1.3.2,2.5.6,3.6,1.2.9.5,1.8,1.2,2.5,2,.9,1,1.6,2.2,2.1,3.4.6,1.7.7,3.4.6,5.2,0,.3-.2.4-.4.4-4.7,0-9.4,0-14,0h-.5,0ZM216.3,35.7c0,0,.2,0,.3,0,2.8,0,5.7,0,8.5,0,.3,0,.4-.1.3-.4,0-.2-.2-.5-.3-.7-.6-1.2-1.6-2-3-2.3-.8-.2-1.5-.2-2.2,0-.8.1-1.4.4-2,.9-.8.6-1.2,1.4-1.5,2.4h0Z"/>
        <path id="path18" class="cls-1" d="M72.6,41.7c0,.2,0,.3-.1.5-.6,1.3-1.5,2.5-2.5,3.5-1.4,1.3-3,2.3-4.9,2.6-.7.1-1.4.2-2.1.2-1.6,0-3-.3-4.5-1-2.3-1.1-4-2.9-5.1-5.2-.8-1.7-1-3.5-.8-5.3.2-1.5.6-2.9,1.3-4.2,1.2-2.1,2.8-3.5,5-4.5,1.2-.5,2.4-.8,3.7-.8,1.2,0,2.5.1,3.6.5,1.7.5,3.2,1.4,4.3,2.7,1,1.1,1.7,2.4,2.2,3.8.6,1.6.7,3.2.6,4.9,0,.3-.2.5-.5.5-4.7,0-9.4,0-14,0-.3,0-.5,0-.4.4.2.9.6,1.6,1.3,2.2,1.2,1.1,2.7,1.4,4.2,1.2,1-.1,1.8-.7,2.5-1.5.1-.2.4-.3.6-.4,1.8,0,3.6,0,5.4,0,0,0,0,0,.2,0h0ZM63,35.8h4.2c.2,0,.5,0,.3-.3-.3-.7-.5-1.3-1.1-1.9-.6-.6-1.4-1-2.3-1.2-.8-.2-1.5-.2-2.2,0-1.1.2-2.1.7-2.7,1.6-.3.4-.5.9-.7,1.3-.2.5-.2.5.3.5h4.1Z"/>
        <path id="path19" class="cls-1" d="M81.2,47.8h-5.8v-19.8h5.5v2.1s0,0,.1,0c0,0,.1-.1.2-.2.5-.9,1.2-1.6,2.2-2,.8-.3,1.6-.6,2.5-.6,1.2,0,2.4,0,3.6.5,2.1.8,3.6,2.2,4.1,4.5.3,1.4.4,2.8.4,4.2,0,3.6,0,7.2,0,10.8,0,.3,0,.5-.4.5-1.7,0-3.4,0-5,0-.3,0-.5,0-.5-.4,0-3.8,0-7.7,0-11.5,0-1.6-.6-2.5-2.1-3-.5-.1-1,0-1.5,0-.5,0-.9.1-1.3.3-.9.4-1.4,1.2-1.5,2.2-.1.8-.2,1.6-.2,2.4,0,3.2,0,6.4,0,9.6v.4h0Z"/>
        <path id="path20" class="cls-1" d="M167.5,47.9h-5.8v-19.8h5.4v2s0,0,.1,0c.1-.1.2-.2.3-.3.5-.8,1.2-1.4,2-1.8.8-.4,1.6-.6,2.5-.6,1,0,2.1,0,3.1.3,1.3.5,2.6,1.1,3.5,2.2.6.7.9,1.5,1.1,2.4.2,1,.3,2,.3,3,0,4,0,8.1,0,12.1v.5h-5.8v-.4c0-3.8,0-7.5,0-11.3,0-1.2-.3-2.3-1.5-2.9-.3-.2-.7-.3-1-.3-.8,0-1.6-.1-2.3.2-.9.4-1.5,1.2-1.7,2.2-.1,1.1-.2,2.2-.2,3.3,0,2.9,0,5.9,0,8.8v.4h0Z"/>
        <path id="path21" class="cls-1" d="M208.6,47.9h-5.9v-26.4h5.9v26.4Z"/>
        <path id="path22" class="cls-1" d="M151,27.4v5.8c-.5,0-1,.1-1.5.2-1.5.2-2.6.8-3.1,2.4-.1.4-.1.9-.1,1.4,0,3.4,0,6.8,0,10.2v.5h-5.8v-19.8h5.5v2.1s0,0,.1,0c1-2.1,2.7-2.9,4.9-2.8h0Z"/>
      </g>
    </g>
  </g>
</svg>